<?xml version="1.0" standalone="no"?>
<!DOCTYPE svg PUBLIC "-//W3C//DTD SVG 20010904//EN"
 "http://www.w3.org/TR/2001/REC-SVG-20010904/DTD/svg10.dtd">
<svg version="1.0" xmlns="http://www.w3.org/2000/svg"
 width="726.000000pt" height="726.000000pt" viewBox="0 0 726.000000 726.000000"
 preserveAspectRatio="xMidYMid meet">
<metadata>
Created by potrace 1.14, written by Peter Selinger 2001-2017
</metadata>
<g transform="translate(0.000000,726.000000) scale(0.100000,-0.100000)"
fill="#000000" stroke="none">
<path d="M5474 6873 c-6 -57 -9 -73 -18 -123 -3 -14 -8 -41 -10 -60 -3 -19 -8
-46 -10 -60 -3 -14 -7 -41 -10 -60 -3 -19 -7 -44 -10 -55 -2 -11 -7 -40 -10
-65 -3 -25 -8 -56 -11 -70 -3 -14 -8 -45 -10 -70 -3 -25 -8 -52 -10 -60 -3 -8
-7 -33 -10 -55 -10 -63 -13 -81 -39 -240 -28 -170 -32 -195 -46 -285 -5 -36
-12 -76 -15 -90 -3 -14 -8 -45 -11 -70 -3 -25 -8 -54 -11 -65 -2 -11 -6 -36
-9 -55 -2 -19 -9 -60 -14 -90 -5 -30 -12 -68 -14 -85 -3 -16 -11 -70 -20 -120
-8 -49 -17 -108 -21 -130 -3 -23 -8 -52 -10 -65 -3 -14 -7 -43 -10 -65 -3 -22
-12 -76 -19 -120 -8 -44 -17 -98 -21 -120 -3 -22 -15 -96 -26 -165 -11 -69
-22 -138 -25 -155 -3 -16 -7 -37 -9 -45 -2 -8 -7 -39 -10 -69 -4 -30 -9 -63
-11 -75 -2 -12 -7 -37 -10 -56 -3 -19 -7 -46 -10 -60 -7 -42 -23 -143 -29
-185 -4 -22 -8 -47 -11 -55 -2 -8 -6 -38 -10 -65 -3 -28 -9 -68 -14 -90 -5
-22 -12 -62 -15 -90 -3 -27 -8 -61 -11 -75 -11 -57 -36 -214 -49 -305 -4 -22
-8 -47 -10 -55 -2 -8 -7 -37 -10 -65 -4 -27 -8 -57 -10 -65 -2 -8 -6 -28 -9
-45 -5 -31 -34 -211 -41 -254 -2 -13 -7 -45 -11 -70 -4 -25 -8 -55 -10 -66 -3
-11 -7 -36 -10 -55 -3 -19 -9 -60 -14 -90 -5 -30 -11 -71 -14 -90 -2 -19 -7
-46 -10 -60 -3 -14 -8 -41 -11 -60 -2 -19 -6 -44 -9 -55 -2 -11 -7 -40 -10
-65 -3 -25 -14 -92 -25 -148 -18 -103 -13 -132 8 -45 50 204 179 554 282 768
81 166 186 357 201 363 4 2 8 8 8 14 0 6 30 52 66 104 250 360 526 595 806
687 95 32 121 36 289 47 3 0 -12 64 -33 143 -50 188 -72 269 -108 407 -16 63
-39 149 -50 190 -11 41 -34 127 -50 190 -17 63 -36 138 -44 165 -8 28 -35 129
-60 225 -25 96 -79 301 -120 455 -41 154 -79 298 -85 320 -5 22 -19 75 -30
118 -20 73 -29 108 -86 322 -13 50 -31 117 -40 150 -9 33 -18 67 -20 75 -1 8
-24 93 -49 188 -25 96 -46 176 -46 178 0 2 -4 4 -9 4 -5 0 -13 -26 -17 -57z"/>
<path d="M1063 5741 c-95 -58 -134 -211 -128 -506 2 -88 6 -176 9 -195 5 -31
10 -109 21 -340 6 -117 15 -286 21 -388 3 -51 7 -125 9 -165 2 -40 6 -124 10
-187 8 -144 12 -231 20 -390 4 -69 8 -154 11 -190 2 -36 6 -119 9 -185 4 -66
8 -145 10 -175 2 -30 4 -67 4 -83 1 -26 3 -27 44 -23 23 2 74 11 112 19 39 9
84 18 100 20 17 3 51 10 78 16 26 6 64 14 85 17 20 3 53 9 72 14 19 5 51 12
70 15 19 3 161 31 315 61 154 31 289 58 300 60 11 2 43 8 70 14 28 6 61 12 75
15 76 14 80 16 71 33 -5 9 -18 44 -29 77 -11 33 -66 184 -122 335 -56 151
-112 304 -125 340 -45 129 -157 436 -171 465 -7 17 -24 59 -37 95 -14 36 -33
85 -44 110 -11 25 -37 83 -58 130 -173 391 -362 704 -525 871 -121 123 -208
161 -277 120z"/>
<path d="M1730 5318 c0 -7 75 -199 100 -253 9 -22 21 -51 25 -65 4 -14 13 -38
20 -55 7 -16 50 -124 95 -240 45 -115 86 -219 90 -230 15 -35 67 -164 155
-390 146 -372 216 -549 225 -570 20 -45 82 -201 85 -215 2 -8 19 -53 38 -100
20 -47 61 -150 92 -230 32 -80 61 -154 66 -165 5 -11 43 -108 85 -215 42 -107
82 -208 89 -225 11 -26 84 -211 212 -540 20 -49 41 -103 48 -120 7 -16 50
-124 95 -240 45 -115 86 -219 91 -230 4 -11 27 -63 49 -115 178 -412 415 -709
615 -773 183 -58 330 97 380 403 3 19 7 46 10 60 3 14 7 48 10 76 3 28 8 61
10 75 3 13 7 35 9 49 3 14 8 43 11 65 6 41 11 79 20 130 3 17 12 73 21 125 8
52 17 106 19 120 10 57 37 227 42 255 10 65 12 75 18 85 4 6 8 39 10 73 2 34
7 73 10 87 6 28 7 32 30 175 9 55 18 111 20 125 3 14 7 43 10 65 3 22 12 76
20 120 8 44 17 100 20 125 5 40 18 119 29 175 2 11 7 40 11 65 3 25 9 59 12
75 2 17 6 41 8 55 4 25 32 203 40 250 2 14 14 84 25 155 26 161 25 160 45 275
9 52 19 111 21 130 2 19 9 60 14 90 5 30 11 69 14 85 16 108 20 134 36 218 7
37 11 70 8 72 -2 2 -127 6 -278 9 -151 2 -291 7 -310 10 -19 2 -64 7 -100 10
-91 7 -316 41 -435 66 -55 11 -112 23 -127 26 -49 9 -362 100 -393 113 -11 5
-49 19 -85 31 -264 90 -792 367 -1130 593 -125 83 -284 199 -322 235 -16 14
-28 23 -28 20z"/>
</g>
</svg>
